<svg xmlns="http://www.w3.org/2000/svg" xmlns:xlink="http://www.w3.org/1999/xlink" width="180" height="137.25" viewBox="0 0 180 137.25"><defs><linearGradient id="a" y1="0.462" x2="0.973" y2="0.5" gradientUnits="objectBoundingBox"><stop offset="0" stop-color="#1b9faa"/><stop offset="0.172" stop-color="#69d5de"/><stop offset="0.345" stop-color="#1b9faa"/><stop offset="0.542" stop-color="#1b9faa"/><stop offset="0.872" stop-color="#4bbec7"/><stop offset="1" stop-color="#1b9faa"/></linearGradient><radialGradient id="b" cx="0.5" cy="0.5" r="0.5" gradientUnits="objectBoundingBox"><stop offset="0" stop-opacity="0"/><stop offset="0.724" stop-opacity="0"/><stop offset="1" stop-opacity="0.302"/></radialGradient><linearGradient id="c" y1="0.5" x2="1" y2="0.5" gradientUnits="objectBoundingBox"><stop offset="0" stop-color="#005f1d"/><stop offset="0.458" stop-color="#208840"/><stop offset="0.995" stop-color="#005f1d"/><stop offset="1" stop-color="#00521a"/></linearGradient><linearGradient id="d" y1="0.058" x2="1" y2="1" gradientUnits="objectBoundingBox"><stop offset="0" stop-color="#272727"/><stop offset="0.011" stop-color="#2e2e2e"/><stop offset="0.182" stop-color="#4e4e4e"/><stop offset="0.542" stop-color="#2e2e2e"/><stop offset="1" stop-color="#2e2e2e"/></linearGradient><clipPath id="f"><rect width="180" height="137.25"/></clipPath></defs><g id="e" clip-path="url(#f)"><g transform="translate(-57 -63)"><path d="M20.812,2.953A290.222,290.222,0,0,1,73.654-2.362c27.575,0,57.46,5.315,57.46,5.315,11.494,0,20.812,10.074,20.812,22.5V72.7c0,12.426-9.318,22.5-20.812,22.5,0,0-29.884,5.729-57.46,5.729A270.159,270.159,0,0,1,20.812,95.2C9.318,95.2,0,85.129,0,72.7V25.453C0,13.027,9.318,2.953,20.812,2.953Z" transform="translate(76.075 89.297)" fill="url(#a)"/><rect width="4.5" height="31.5" rx="2" transform="translate(228 121.5)" fill="#64eef8"/><rect width="4.5" height="22.5" rx="2" transform="translate(232.5 126)" fill="#00363b"/><path d="M20.812,2.953A290.222,290.222,0,0,1,73.654-2.362c27.575,0,57.46,5.315,57.46,5.315,11.494,0,20.812,10.074,20.812,22.5V72.7c0,12.426-9.318,22.5-20.812,22.5,0,0-29.884,5.729-57.46,5.729A270.159,270.159,0,0,1,20.812,95.2C9.318,95.2,0,85.129,0,72.7V25.453C0,13.027,9.318,2.953,20.812,2.953Z" transform="translate(76.075 89.297)" fill="url(#b)"/><rect width="36" height="96.75" rx="5" transform="translate(72.75 63)" fill="url(#c)"/><rect width="67.5" height="47.25" rx="5" transform="translate(57 153)" fill="url(#d)"/></g></g></svg>