<svg xmlns="http://www.w3.org/2000/svg" xmlns:xlink="http://www.w3.org/1999/xlink" width="230" height="230" viewBox="0 0 230 230">
  <defs>
    <clipPath id="clip-annafrozen">
      <rect width="230" height="230"/>
    </clipPath>
  </defs>
  <g id="annafrozen" clip-path="url(#clip-annafrozen)">
    <g id="anna" transform="translate(-32.4 -34.042)">
      <g id="robotShape">
        <path id="Path_3" data-name="Path 3" d="M36.4,89.9v121a27.585,27.585,0,0,0,3.1,12.9,36.175,36.175,0,0,0,23.1,18.8c21.9,5.9,48.7,13,48.7,13a83.224,83.224,0,0,0,21.3,0s94.9-10.5,109.7-22.5c0,0,17.3-13.3,17.1-26.4s0-100.9,0-100.9.9-37.5-26.5-40.6c-30.9-4.4-100.2-15-100.2-15a106.247,106.247,0,0,0-28.5,3c-12,2.9-37.6,8.9-48.8,11.5a22.664,22.664,0,0,0-11.9,7.2C40,76.1,36.4,82.2,36.4,89.9Z" fill="#00828d"/>
        <path id="Path_4" data-name="Path 4" d="M263.6,220.4" fill="#cf339b"/>
        <path id="Path_5" data-name="Path 5" d="M104.1,217.9V88.2a11,11,0,0,1,.4-3.1c1.5-5.7,7.6-23.6,25.2-23.6,20.9,0,103.4,12.2,103.4,12.2s21.2,5,21.9,28.4c.6,20.9.1,82.1,0,95.2a21.324,21.324,0,0,1-1,6.7c-1.8,5.9-6.5,16.4-18.7,21.7-17.5,7.5-98,16.9-98,16.9S102.6,244.5,104.1,217.9Z" fill="#86d6d8"/>
        <ellipse id="Ellipse_1" data-name="Ellipse 1" cx="27.1" cy="35.8" rx="27.1" ry="35.8" transform="translate(45.2 113.5)" fill="#64eef8"/>
        <ellipse id="Ellipse_2" data-name="Ellipse 2" cx="22.8" cy="30.1" rx="22.8" ry="30.1" transform="translate(39.8 119.2)" fill="#00363b"/>
        <path id="Path_6" data-name="Path 6" d="M61,128V109.7a6.734,6.734,0,0,0-4.2-6.3c-.1,0-.1-.1-.2-.1-3.9-1.6-8.1-3.1-8.1-3.1s-3.3-2.2,3.9-5.6,13.4-6.7,13.4-6.7,4.2-1.7-3.3-4.7c-1.6-.6-3-1.2-4-1.6a7.022,7.022,0,0,1-4.2-6.2L54,57.8" fill="none" stroke="#00363b" stroke-linecap="round" stroke-miterlimit="10" stroke-width="6"/>
        <path id="Path_7" data-name="Path 7" d="M53,64.3l5.1-.3c5.1-.3,6.7-5.3,5.9-12.5-.9-7.2-5.4-9.9-10.6-9.4S46,43.8,45.7,54.2s7.9,10.1,7.9,10.1" fill="#00363b"/>
        <path id="Path_8" data-name="Path 8" d="M166,188.8" fill="none" stroke="#1d1d1b" stroke-miterlimit="10" stroke-width="1"/>
        <path id="Path_9" data-name="Path 9" d="M108.9,215.6,109,92a8.627,8.627,0,0,1,.4-2.8c1.4-5.3,6.9-21.9,22.8-21.9,18.9,0,93.5,11.3,93.5,11.3s19.2,4.6,19.8,26.3c.5,19.3.1,76.1,0,88.3a21.628,21.628,0,0,1-.9,6.2c-1.6,5.5-5.9,15.2-16.9,20.1-15.8,6.9-88.7,15.6-88.7,15.6S107.5,240.2,108.9,215.6Z" fill="#00363b"/>
      </g>
      <g id="normal">
        <path id="Path_10" data-name="Path 10" d="M166.9,184.6c1.3,8,8,13.8,15.4,13.9,8.5.2,16.1-7.1,16.2-16.4" fill="none" stroke="#c3d1e9" stroke-linecap="round" stroke-miterlimit="10" stroke-width="3.5"/>
        <path id="Path_11" data-name="Path 11" d="M141.7,112.5s-.6-10.4,13.5-10.2c14.2.2,13.2,9.6,13.2,9.6s5.3,45.4-4,50c-7.1,3.5-12.1,2.5-12.1,2.5s-9.3-.2-9.6-7.9S141.7,112.5,141.7,112.5Z" fill="#c3d1e9"/>
        <path id="Path_12" data-name="Path 12" d="M198.5,118s-.5-9.3,11.7-9.1,11.4,8.6,11.4,8.6,4.6,40.5-3.5,44.6c-6.1,3.1-10.4,2.2-10.4,2.2s-8-.2-8.3-7.1C199,150.4,198.5,118,198.5,118Z" fill="#c3d1e9"/>
      </g>
    </g>
  </g>
</svg>
